<!DOCTYPE svg PUBLIC "-//W3C//DTD SVG 20010904//EN" "http://www.w3.org/TR/2001/REC-SVG-20010904/DTD/svg10.dtd">
<svg version="1.0" xmlns="http://www.w3.org/2000/svg" width="394px" height="197px" viewBox="0 0 3940 1970" preserveAspectRatio="xMidYMid meet">
<g id="layerbg1" fill="#000000" stroke="none">
 <path d="M1800 1623 c-691 -47 -1206 -264 -1357 -571 -24 -49 -28 -69 -28 -143 0 -77 3 -91 34 -153 64 -126 211 -250 403 -341 552 -262 1476 -298 2123 -84 310 103 528 254 616 425 31 62 34 76 34 153 0 72 -4 95 -26 141 -141 298 -652 519 -1319 570 -124 9 -370 11 -480 3z m640 -88 c191 -24 360 -62 523 -116 300 -100 485 -224 562 -376 40 -77 42 -183 7 -255 -84 -170 -312 -315 -647 -413 -671 -195 -1579 -133 -2082 141 -144 78 -239 165 -290 265 -39 77 -40 181 -1 257 41 78 75 117 162 183 228 174 651 300 1116 333 120 8 530 -3 650 -19z"/>
 </g>
<g id="layerbg2" fill="#ffffff" stroke="none">
 <path d="M0 985 l0 -985 1970 0 1970 0 0 985 0 985 -1970 0 -1970 0 0 -985z m2280 615 c661 -50 1170 -267 1302 -556 18 -39 23 -67 23 -135 0 -77 -3 -91 -34 -152 -250 -493 -1588 -710 -2506 -406 -306 101 -513 243 -596 406 -31 61 -34 75 -34 152 0 74 4 94 28 143 144 293 656 505 1337 551 110 8 356 6 480 -3z"/>
 <path d="M1790 1574 c-465 -33 -886 -159 -1117 -333 -90 -67 -140 -124 -180 -203 -40 -76 -40 -180 0 -257 224 -436 1296 -664 2212 -471 355 75 656 222 785 381 63 78 85 136 85 219 0 64 -5 84 -30 134 -124 244 -547 440 -1105 511 -120 16 -530 27 -650 19z"/>
 </g>
<g id="layer101" fill="#000000" stroke="none">
 <path d="M1800 1613 c-687 -47 -1200 -261 -1347 -562 -24 -48 -28 -68 -28 -142 0 -77 3 -91 34 -152 41 -80 134 -177 232 -243 312 -207 864 -328 1424 -311 725 22 1308 242 1466 553 31 62 34 76 34 153 0 72 -4 95 -26 141 -139 293 -646 509 -1309 560 -124 9 -370 11 -480 3z m640 -68 c191 -24 360 -62 523 -116 301 -100 493 -229 572 -385 25 -50 30 -71 30 -134 0 -64 -5 -84 -30 -134 -230 -454 -1468 -672 -2363 -415 -348 99 -579 244 -669 420 -39 77 -40 181 -1 257 41 78 84 128 172 193 230 174 652 300 1116 333 120 8 530 -3 650 -19z"/>
 </g>
<g id="layer102" fill="#ffffff" stroke="none">
 <path d="M0 985 l0 -985 1970 0 1970 0 0 985 0 985 -1970 0 -1970 0 0 -985z m2280 625 c663 -51 1170 -267 1309 -560 22 -46 26 -69 26 -141 0 -77 -3 -91 -34 -153 -158 -311 -741 -531 -1466 -553 -560 -17 -1112 104 -1424 311 -98 66 -191 163 -232 243 -31 61 -34 75 -34 152 0 74 4 94 28 142 116 237 461 424 947 513 282 51 594 67 880 46z"/>
 <path d="M1790 1564 c-464 -33 -886 -159 -1116 -333 -88 -65 -131 -115 -172 -193 -39 -76 -38 -180 1 -257 152 -295 715 -506 1412 -528 760 -23 1457 201 1620 523 25 50 30 70 30 134 0 63 -5 84 -30 134 -120 238 -541 430 -1095 501 -120 16 -530 27 -650 19z"/>
 </g>

</svg>