<!DOCTYPE svg PUBLIC "-//W3C//DTD SVG 20010904//EN" "http://www.w3.org/TR/2001/REC-SVG-20010904/DTD/svg10.dtd">
<svg version="1.0" xmlns="http://www.w3.org/2000/svg" width="394px" height="197px" viewBox="0 0 3940 1970" preserveAspectRatio="xMidYMid meet">
<g id="layerbg1" fill="#000000" stroke="none">
 <path d="M829 1264 c-8 -10 -10 -21 -3 -30 5 -8 214 -193 464 -409 l455 -395 786 0 c706 0 788 2 800 16 8 10 10 21 3 30 -5 8 -214 193 -464 409 l-455 395 -786 0 c-706 0 -788 -2 -800 -16z m1973 -407 l407 -352 -726 -3 c-606 -2 -728 0 -737 12 -6 7 -182 161 -391 341 -209 181 -387 334 -395 342 -12 11 102 13 710 13 l725 0 407 -353z"/>
 </g>
<g id="layerbg2" fill="#ffffff" stroke="none">
 <path d="M0 985 l0 -985 1970 0 1970 0 0 985 0 985 -1970 0 -1970 0 0 -985z m2865 -115 c248 -215 451 -397 453 -405 3 -13 -92 -15 -785 -15 l-788 0 -450 390 c-247 215 -451 397 -453 405 -3 13 92 15 785 15 l788 0 450 -390z"/>
 <path d="M926 1221 c-3 -5 173 -164 392 -354 218 -189 406 -354 416 -366 l19 -21 738 0 c423 0 740 4 743 9 3 5 -184 174 -417 375 l-422 366 -732 0 c-419 0 -734 -4 -737 -9z"/>
 </g>
<g id="layer101" fill="#000000" stroke="none">
 <path d="M833 1254 c-3 -8 1 -22 8 -29 8 -8 214 -187 459 -399 l445 -386 790 3 c752 2 790 3 790 20 0 11 -171 166 -455 412 l-455 395 -788 0 c-708 0 -788 -2 -794 -16z m1980 -397 l419 -362 -739 -3 c-600 -2 -740 0 -748 11 -5 7 -181 161 -390 342 -209 180 -391 339 -405 351 l-25 24 735 0 735 0 418 -363z"/>
 </g>
<g id="layer102" fill="#ffffff" stroke="none">
 <path d="M0 985 l0 -985 1970 0 1970 0 0 985 0 985 -1970 0 -1970 0 0 -985z m2870 -110 c284 -246 455 -401 455 -412 0 -17 -38 -18 -790 -20 l-790 -3 -445 386 c-245 212 -451 391 -459 399 -7 7 -11 21 -8 29 6 14 86 16 794 16 l788 0 455 -395z"/>
 <path d="M950 1196 c14 -12 196 -171 405 -351 209 -181 385 -335 390 -342 8 -11 148 -13 748 -11 l739 3 -419 362 -418 363 -735 0 -735 0 25 -24z"/>
 </g>

</svg>