<!DOCTYPE svg PUBLIC "-//W3C//DTD SVG 20010904//EN" "http://www.w3.org/TR/2001/REC-SVG-20010904/DTD/svg10.dtd">
<svg version="1.0" xmlns="http://www.w3.org/2000/svg" width="394px" height="197px" viewBox="0 0 3940 1970" preserveAspectRatio="xMidYMid meet">
<g id="layerbg1" fill="#000000" stroke="none">
 <path d="M1135 1441 c-445 -246 -814 -455 -819 -464 -8 -13 -6 -22 9 -36 16 -16 1570 -882 1612 -898 7 -3 360 188 785 423 425 235 795 439 822 453 53 28 66 46 45 66 -17 16 -1624 905 -1636 905 -4 0 -372 -202 -818 -449z m1610 -61 c402 -222 732 -405 735 -407 3 -3 -4 -10 -15 -16 -78 -48 -1512 -839 -1520 -839 -5 0 -320 172 -700 382 -379 211 -725 401 -769 422 l-79 40 94 48 c52 27 402 219 779 428 l685 380 30 -18 c17 -10 359 -199 760 -420z"/>
 </g>
<g id="layerbg2" fill="#ffffff" stroke="none">
 <path d="M0 985 l0 -985 1970 0 1970 0 0 985 0 985 -1970 0 -1970 0 0 -985z m2770 438 c704 -389 846 -473 801 -473 -5 0 -373 -201 -816 -446 l-807 -447 -32 16 c-155 77 -1582 877 -1584 888 -2 9 262 160 805 461 445 246 812 447 816 448 4 0 372 -201 817 -447z"/>
 <path d="M1270 1458 c-377 -209 -730 -403 -784 -431 -55 -29 -101 -57 -103 -64 -3 -7 33 -31 84 -56 48 -24 399 -216 778 -427 380 -210 695 -382 700 -382 9 0 1387 759 1518 836 26 16 47 32 45 37 -2 5 -334 191 -738 415 -404 223 -753 416 -775 428 l-40 23 -685 -379z"/>
 </g>
<g id="layer101" fill="#000000" stroke="none">
 <path d="M1135 1431 c-471 -261 -811 -455 -813 -464 -2 -9 12 -26 35 -40 107 -69 1587 -878 1598 -873 7 2 370 202 806 443 437 242 802 442 812 446 10 4 17 14 15 23 -3 15 -1609 913 -1633 913 -5 0 -374 -201 -820 -448z m1638 -56 c399 -220 726 -402 726 -405 1 -7 11 -1 -814 -458 -401 -222 -734 -404 -740 -404 -5 0 -334 179 -730 398 -396 220 -744 410 -773 423 -28 14 -52 28 -52 32 0 4 44 30 98 57 53 28 405 221 782 430 l685 379 46 -26 c25 -14 373 -206 772 -426z"/>
 </g>
<g id="layer102" fill="#ffffff" stroke="none">
 <path d="M0 985 l0 -985 1970 0 1970 0 0 985 0 985 -1970 0 -1970 0 0 -985z m2775 446 c492 -272 811 -455 813 -465 2 -9 -5 -19 -15 -23 -10 -4 -375 -204 -812 -446 -436 -241 -799 -441 -806 -443 -11 -5 -1491 804 -1598 873 -23 14 -37 31 -35 40 3 14 1610 913 1633 912 6 0 375 -202 820 -448z"/>
 <path d="M1270 1448 c-377 -209 -729 -402 -782 -430 -54 -27 -98 -53 -98 -57 0 -4 24 -18 52 -32 29 -13 377 -203 773 -423 396 -219 725 -398 730 -398 6 0 339 182 740 404 825 457 815 451 814 458 0 3 -327 185 -726 405 -399 220 -747 412 -772 426 l-46 26 -685 -379z"/>
 </g>

</svg>