<!DOCTYPE svg PUBLIC "-//W3C//DTD SVG 20010904//EN" "http://www.w3.org/TR/2001/REC-SVG-20010904/DTD/svg10.dtd">
<svg version="1.0" xmlns="http://www.w3.org/2000/svg" width="394px" height="197px" viewBox="0 0 3940 1970" preserveAspectRatio="xMidYMid meet">
<g id="layerbg1" fill="#000000" stroke="none">
 <path d="M555 1558 c-3 -7 -4 -310 -3 -673 l3 -660 1440 0 1440 0 0 670 0 670 -1438 3 c-1145 2 -1439 0 -1442 -10z m2815 -663 l0 -605 -1375 0 -1375 0 0 605 0 605 1375 0 1375 0 0 -605z"/>
 </g>
<g id="layerbg2" fill="#ffffff" stroke="none">
 <path d="M0 985 l0 -985 1970 0 1970 0 0 985 0 985 -1970 0 -1970 0 0 -985z m3420 -90 l0 -655 -1425 0 -1425 0 0 655 0 655 1425 0 1425 0 0 -655z"/>
 <path d="M605 1508 c-3 -7 -4 -287 -3 -623 l3 -610 1390 0 1390 0 0 620 0 620 -1388 3 c-1105 2 -1389 0 -1392 -10z"/>
 </g>
<g id="layer101" fill="#000000" stroke="none">
 <path d="M560 895 l0 -665 1435 0 1435 0 0 665 0 665 -1435 0 -1435 0 0 -665z m2820 0 l0 -615 -1385 0 -1385 0 0 615 0 615 1385 0 1385 0 0 -615z"/>
 </g>
<g id="layer102" fill="#ffffff" stroke="none">
 <path d="M0 985 l0 -985 1970 0 1970 0 0 985 0 985 -1970 0 -1970 0 0 -985z m3430 -90 l0 -665 -1435 0 -1435 0 0 665 0 665 1435 0 1435 0 0 -665z"/>
 <path d="M610 895 l0 -615 1385 0 1385 0 0 615 0 615 -1385 0 -1385 0 0 -615z"/>
 </g>

</svg>